<svg xmlns='http://www.w3.org/2000/svg' viewBox='0 0 480 280'><path d="M 418.2,247.0 L 358.5,143.6" fill='none' stroke='#000' stroke-width='2.0'/><path d="M 363.7,152.5 L 391.6,104.2" fill='none' stroke='#000' stroke-width='2.0'/><path d="M 391.6,104.2 L 419.5,55.9" fill='none' stroke='#f00' stroke-width='2.0'/><path d="M 348.2,143.6 L 376.1,95.3" fill='none' stroke='#000' stroke-width='2.0'/><path d="M 376.1,95.3 L 404.0,47.0" fill='none' stroke='#f00' stroke-width='2.0'/><path d="M 358.5,143.6 L 239.1,143.6" fill='none' stroke='#000' stroke-width='2.0'/><path d="M 239.1,143.6 L 208.0,100.8" fill='none' stroke='#000' stroke-width='2.0'/><path d="M 208.0,100.8 L 176.9,58.0" fill='none' stroke='#00f' stroke-width='2.0'/><path d="M 216.9,143.6 L 189.6,106.0" fill='none' stroke='#000' stroke-width='2.0'/><path d="M 189.6,106.0 L 162.4,68.5" fill='none' stroke='#00f' stroke-width='2.0'/><path d="M 159.5,50.0 L 107.4,66.9" fill='none' stroke='#00f' stroke-width='2.0'/><path d="M 107.4,66.9 L 55.3,83.9" fill='none' stroke='#000' stroke-width='2.0'/><path d="M 55.3,83.9 L 55.3,203.3" fill='none' stroke='#000' stroke-width='2.0'/><path d="M 55.3,203.3 L 168.9,240.2" fill='none' stroke='#000' stroke-width='2.0'/><path d="M 168.9,240.2 L 239.1,143.6" fill='none' stroke='#000' stroke-width='2.0'/><path d="M 361.5,148.8 L 358.5,143.6 L 352.5,143.6" fill='none' stroke='#000' stroke-width='2.0'/><path d="M 57.9,83.0 L 55.3,83.9 L 55.3,89.8" fill='none' stroke='#000' stroke-width='2.0'/><path d="M 55.3,197.3 L 55.3,203.3 L 60.9,205.2" fill='none' stroke='#000' stroke-width='2.0'/><path d="M 163.2,238.4 L 168.9,240.2 L 172.4,235.4" fill='none' stroke='#000' stroke-width='2.0'/><path d="M 411.7 40.2 Q 411.7 36.8, 413.4 34.9 Q 415.1 33.0, 418.2 33.0 Q 421.4 33.0, 423.1 34.9 Q 424.7 36.8, 424.7 40.2 Q 424.7 43.6, 423.0 45.6 Q 421.3 47.5, 418.2 47.5 Q 415.1 47.5, 413.4 45.6 Q 411.7 43.6, 411.7 40.2 M 418.2 45.9 Q 420.4 45.9, 421.6 44.5 Q 422.7 43.0, 422.7 40.2 Q 422.7 37.4, 421.6 36.0 Q 420.4 34.6, 418.2 34.6 Q 416.1 34.6, 414.9 36.0 Q 413.7 37.4, 413.7 40.2 Q 413.7 43.0, 414.9 44.5 Q 416.1 45.9, 418.2 45.9 " fill='#f00'/><path d="M 165.7 39.9 L 170.4 47.4 Q 170.8 48.1, 171.6 49.4 Q 172.3 50.8, 172.3 50.9 L 172.3 39.9 L 174.2 39.9 L 174.2 54.0 L 172.3 54.0 L 167.3 45.8 Q 166.7 44.9, 166.1 43.8 Q 165.5 42.7, 165.3 42.3 L 165.3 54.0 L 163.5 54.0 L 163.5 39.9 L 165.7 39.9 " fill='#00f'/></svg>